<svg xmlns="http://www.w3.org/2000/svg">
    <symbol id="inst" width="15" height="15" viewBox="0 0 15 15" fill="none">
<path d="M13.6811 10.7246C13.6811 12.3188 12.3642 13.6232 10.8278 13.6232H4.31651C2.70696 13.6232 1.46322 12.3188 1.46322 10.7246V4.27536C1.46322 2.68116 2.78012 1.37681 4.31651 1.37681H10.8278C12.4374 1.37681 13.6811 2.68116 13.6811 4.27536V10.7246ZM10.6815 0H4.31651C1.90219 0 0 1.95652 0 4.34783V10.6522C0 13.0435 1.97535 15 4.31651 15H9.29147H10.6815C13.0958 15 14.998 13.0435 14.998 10.6522V4.34783C15.0712 1.95652 13.0958 0 10.6815 0ZM7.5356 10C6.14554 10 4.97496 8.84058 4.97496 7.46377C4.97496 6.08696 6.07237 4.92754 7.5356 4.92754C8.99882 4.92754 10.0962 6.08696 10.0962 7.46377C10.0962 8.91304 8.92566 10 7.5356 10ZM7.5356 3.62319C5.41392 3.62319 3.65806 5.36232 3.65806 7.53623C3.65806 9.71014 5.41392 11.4493 7.5356 11.4493C9.65727 11.4493 11.4131 9.71014 11.4131 7.53623C11.4131 5.36232 9.65727 3.62319 7.5356 3.62319ZM11.5595 2.53623C11.0473 2.53623 10.6815 2.97101 10.6815 3.4058C10.6815 3.84058 11.1205 4.27536 11.5595 4.27536C12.0716 4.27536 12.4374 3.84058 12.4374 3.4058C12.4374 2.97101 12.0716 2.53623 11.5595 2.53623Z" fill="#006198"/>
    </symbol>
</svg>
