<svg  xmlns="http://www.w3.org/2000/svg">
    <symbol id="st-07" width="42" height="42" viewBox="0 0 42 42" fill="none">
<path d="M30.1709 5.17708C23.5288 -1.46579 12.8509 -1.75168 5.86289 4.52626C-1.12513 10.8042 -1.98132 21.4521 3.91379 28.7661C9.8089 36.0801 20.3953 37.5042 28.0135 32.0081L29.5738 33.5678C29.5385 34.165 29.7595 34.7489 30.1814 35.1731L36.1869 41.1788C36.7146 41.706 37.4304 42.0014 38.1763 42C39.5763 42 40.1777 41.1662 41.1766 40.1673C42.2745 39.0673 42.2745 37.286 41.1766 36.186L35.1711 30.1796C34.7469 29.7574 34.1627 29.5364 33.5653 29.5719L32.0064 28.0129C37.0829 20.9824 36.3052 11.3063 30.1709 5.17708ZM6.16664 29.1785C0.676999 23.6885 -0.170268 15.0849 4.14299 8.62941C8.45625 2.17391 16.7287 -0.335587 23.9013 2.63563C31.0739 5.60684 35.1489 13.2312 33.6342 20.846C32.1196 28.4608 25.4371 33.9452 17.6735 33.9452C13.358 33.9431 9.21957 32.2288 6.16664 29.1785ZM39.1871 36.1748L36.1771 39.1851L32.6665 35.6743L35.6765 32.6641L39.1871 36.1748ZM40.1868 39.176L39.1773 40.1855C38.9096 40.4513 38.547 40.5997 38.1697 40.5978C37.7924 40.596 37.4313 40.4441 37.1662 40.1757L40.1763 37.1654C40.7339 37.7179 40.7386 38.6177 40.1868 39.176ZM34.6867 31.6742L31.6766 34.6844L31.1712 34.179C30.8925 33.8999 30.8925 33.4478 31.1712 33.1688L33.1712 31.1673C33.4508 30.8893 33.9024 30.8893 34.182 31.1673L34.6867 31.6742ZM32.1877 30.1726C31.3868 30.9734 30.3053 32.0536 30.1744 32.1866L29.1209 31.1316C29.8479 30.5193 30.5212 29.846 31.1334 29.119L32.1877 30.1726Z" fill="#06679C"/>
<path fill-rule="evenodd" clip-rule="evenodd" d="M28.1703 7.17364C24.3626 3.35437 18.7824 1.9022 13.5961 3.38091C8.40987 4.85962 4.43441 9.0363 3.21316 14.2894C1.9919 19.5425 3.71722 25.0447 7.71927 28.6597C7.75732 28.711 7.80485 28.7545 7.85928 28.7878C10.4794 31.119 13.8459 32.4378 17.3522 32.5065C23.4103 32.6344 28.9381 29.0673 31.3179 23.4945C33.6977 17.9216 32.4518 11.4617 28.1703 7.17364ZM4.23599 17.671C4.22921 11.5277 8.38825 6.16228 14.339 4.63682C20.2906 3.11113 26.5191 5.81581 29.4677 11.2064C32.4163 16.597 31.3343 23.3009 26.8395 27.4899L25.6775 28.456C20.8835 32.0292 14.3021 31.9924 9.54842 28.3657L8.36749 27.3597C5.71515 24.8368 4.22051 21.3317 4.23599 17.671Z" fill="#06679C"/>
<path d="M26.785 16.1065L22.4844 11.7929C22.5382 11.6864 22.6457 11.5266 22.6457 11.3669V7.85207C22.6457 7.37278 22.2694 7 21.7856 7H19.7429C19.259 7 18.8827 7.37278 18.8827 7.85207V8.1716L18.1301 7.47929C17.8076 7.15976 17.27 7.15976 16.9475 7.47929L8.23892 16.1598C8.02389 16.3728 7.91638 16.7456 8.07765 17.0651C8.18516 17.3846 8.5077 17.5976 8.83024 17.5976H10.3892V24.1479C10.3892 24.6272 10.7655 25 11.2493 25H23.7746C24.2584 25 24.6347 24.6272 24.6347 24.1479V17.5444H26.1937C26.5162 17.5444 26.8387 17.3314 26.9462 17.0118C27.0538 16.6923 27 16.3195 26.785 16.1065ZM20.5492 9.55621V8.7574H20.9255V10.3018L20.4954 9.87574C20.5492 9.76923 20.5492 9.66272 20.5492 9.55621ZM18.3989 23.2959H16.4637V19.9408H18.3989V23.2959ZM22.9683 23.2959H20.1191V19.0888C20.1191 18.6095 19.7428 18.2367 19.259 18.2367H15.6573C15.1735 18.2367 14.7972 18.6095 14.7972 19.0888V23.2959H12.0556V17.5444H22.9683V23.2959ZM10.873 15.8935L17.5388 9.23669L24.2047 15.8935H10.873Z" fill="#06679C"/>
    </symbol>
</svg>
