<svg xmlns="http://www.w3.org/2000/svg">
    <symbol id="st-03" width="38" height="48" viewBox="0 0 38 48" fill="none">
<path d="M34.8325 20.8V16C34.8325 7.16328 27.7441 0 18.9998 0C10.2559 0 3.16709 7.16328 3.16709 16V20.8C1.84667 20.7941 0.662693 21.6203 0.200003 22.8703C-0.262686 24.1199 0.0944775 25.5289 1.09485 26.4C0.0944775 27.2711 -0.262686 28.6801 0.200003 29.9297C0.662693 31.1797 1.84667 32.0059 3.16709 32H6.34021C6.54816 31.9992 6.75535 31.9781 6.95906 31.9367C5.55862 33.1437 4.75152 34.9102 4.75036 36.7703V47.2C4.75036 47.6418 5.10482 48 5.542 48H32.4576V47.9887C33.4394 47.9555 34.3076 47.3359 34.6663 46.4117C35.0254 45.4879 34.8062 44.4367 34.1089 43.7375L33.2493 42.8688V36.7703C33.2485 34.9012 32.4333 33.127 31.0208 31.9199C31.2489 31.9723 31.4816 31.9992 31.7151 32H34.8325C36.1529 32.0059 37.3373 31.1797 37.8 29.9297C38.2627 28.6801 37.9055 27.2711 36.9052 26.4C37.9055 25.5289 38.2627 24.1199 37.8 22.8703C37.3373 21.6203 36.1529 20.7941 34.8325 20.8ZM3.16709 30.4C2.29274 30.4 1.58382 29.6836 1.58382 28.8C1.58382 27.9164 2.29274 27.2 3.16709 27.2C4.04183 27.2 4.75036 27.9164 4.75036 28.8C4.75036 29.6836 4.04183 30.4 3.16709 30.4ZM3.16709 25.6C2.29274 25.6 1.58382 24.8836 1.58382 24C1.58382 23.1164 2.29274 22.4 3.16709 22.4C4.04183 22.4 4.75036 23.1164 4.75036 24C4.75036 24.8836 4.04183 25.6 3.16709 25.6ZM32.9899 46.1375C32.6428 46.4871 32.0811 46.4871 31.734 46.1375L27.5922 41.9512L28.8469 40.6832L32.9899 44.8688C33.3354 45.2195 33.3354 45.7867 32.9899 46.1375ZM23.6816 38.8L25.7287 36.7313L28.1237 39.1512L26.0762 41.2199L23.6816 38.8ZM24.9572 42.3512L24.0971 43.2199L21.7025 40.8L22.5622 39.9313L24.9572 42.3512ZM26.8481 35.6L27.7078 34.7313L30.1028 37.1512L29.2428 38.0199L26.8481 35.6ZM31.666 41.2687L29.9671 39.5512L31.666 37.8344V41.2687ZM31.6501 36.4527L28.2675 33.0344C27.9587 32.7223 27.4573 32.7223 27.1481 33.0344L20.0234 40.2344C19.7145 40.5469 19.7145 41.0531 20.0234 41.3656L23.5374 44.9168C23.8466 45.2293 24.348 45.2293 24.6568 44.9168L26.472 43.0832L29.7549 46.4H15.8333V40.8H14.25V46.4H12.6667V39.2H11.0834V46.4H9.50018V37.6H7.91691V46.4H6.33363V36.7703C6.33673 34.1371 8.4484 32.0031 11.0545 32H11.5473L18.4401 38.9656C18.7493 39.2777 19.2507 39.2777 19.5595 38.9656L26.4523 32H26.9455C29.4283 32.0039 31.4839 33.9496 31.6501 36.4527ZM17.7965 33.6863L16.6249 34.8688L13.7861 32H15.5696L17.7965 33.6863ZM16.6249 30.8V29.3344C18.1888 29.6887 19.8112 29.6887 21.3747 29.3344V30.8L18.9998 32.6L16.6249 30.8ZM18.9998 34.7313L20.2553 36L18.9998 37.2687L17.7443 36L18.9998 34.7313ZM20.2047 33.6863L22.43 32H24.2135L21.3747 34.8688L20.2047 33.6863ZM22.958 30.4V28.8488C25.2734 27.9473 27.2239 26.2895 28.4994 24.1391V28.7504C28.5025 29.5277 28.7835 30.2781 29.2911 30.8625C28.5458 30.5578 27.7495 30.4008 26.9455 30.4H22.958ZM28.4994 18.4C28.4994 23.702 24.2463 28 18.9998 28C13.7533 28 9.50018 23.702 9.50018 18.4V16.7434C9.50211 15.0078 10.8937 13.602 12.6107 13.6H25.3893C27.1063 13.602 28.4979 15.0078 28.4994 16.7434V18.4ZM15.0416 28.8488V30.4H11.0545C10.2655 30.4008 9.48394 30.5523 8.75068 30.8465C9.23153 30.2773 9.49709 29.5547 9.50018 28.8062V24.1391C10.7761 26.2895 12.7266 27.9473 15.0416 28.8488ZM32.1063 30.4H31.7151C30.814 30.3992 30.0839 29.6609 30.0827 28.7504V16.7434C30.0804 14.1246 27.9803 12.0027 25.3893 12H12.6107C10.0197 12.0027 7.91961 14.1246 7.91691 16.7434V28.8062C7.91343 29.6852 7.20954 30.3965 6.34021 30.4H5.89375C6.67263 29.0844 6.39587 27.3926 5.23972 26.4C6.01397 25.7293 6.41713 24.7199 6.31972 23.6941C6.22231 22.6684 5.6367 21.7543 4.75036 21.2449V16C4.75036 8.04727 11.1302 1.6 18.9998 1.6C26.8698 1.6 33.2493 8.04727 33.2493 16V21.2449C32.3629 21.7543 31.7777 22.6684 31.6803 23.6941C31.5829 24.7199 31.9856 25.7293 32.7603 26.4C31.6041 27.3926 31.3274 29.0844 32.1063 30.4ZM34.8325 30.4C33.9582 30.4 33.2493 29.6836 33.2493 28.8C33.2493 27.9164 33.9582 27.2 34.8325 27.2C35.7073 27.2 36.4158 27.9164 36.4158 28.8C36.4158 29.6836 35.7073 30.4 34.8325 30.4ZM34.8325 25.6C33.9582 25.6 33.2493 24.8836 33.2493 24C33.2493 23.1164 33.9582 22.4 34.8325 22.4C35.7073 22.4 36.4158 23.1164 36.4158 24C36.4158 24.8836 35.7073 25.6 34.8325 25.6Z" fill="#06679C"/>
    </symbol>
</svg>
