<svg width="50" height="44" viewBox="0 0 50 44" fill="none" xmlns="http://www.w3.org/2000/svg">
    <symbol id="st-03" width="50" height="44" viewBox="0 0 50 44" fill="none">
<path d="M49.1665 0H0.833511C0.373077 0 0 0.373075 0 0.833125V27.5C0 27.96 0.373077 28.3331 0.833511 28.3331H25V29.1666C25 29.6267 25.3731 29.9997 25.8335 29.9997H28.3333V41.4997C28.3272 42.8745 29.4369 43.9937 30.8113 43.9998C31.4358 44.0025 32.0385 43.7705 32.5001 43.3498C33.5155 44.2764 35.0903 44.2039 36.0165 43.1884C36.4376 42.7268 36.6695 42.1241 36.6669 41.4997V28.3331H49.1669C49.6269 28.3331 50 27.96 50 27.5V0.833125C50 0.373075 49.6269 0 49.1665 0ZM28.3333 28.3331H26.6666V23.3332H28.3333V28.3331ZM34.9998 41.4997C34.9998 41.9601 34.6268 42.3332 34.1667 42.3332C33.7063 42.3332 33.3332 41.9601 33.3332 41.4997V34.1665H31.6666V41.4997C31.6666 41.9597 31.2935 42.3332 30.8331 42.3332C30.373 42.3332 29.9999 41.9601 29.9999 41.4997V31.6664H34.9998V41.4997ZM34.9998 29.9997H29.9999V23.3332H34.9998V29.9997ZM30.8334 20C30.8334 19.0795 31.5796 18.3333 32.5001 18.3333C33.4206 18.3333 34.1667 19.0795 34.1667 20C34.1667 20.9204 33.4206 21.6666 32.5001 21.6666C31.5796 21.6666 30.8334 20.9204 30.8334 20ZM38.3331 26.6665H36.6665V17.4998C36.6665 17.0398 37.0396 16.6667 37.5 16.6667C37.9601 16.6667 38.3331 17.0398 38.3331 17.4998V26.6665ZM48.3334 26.6665H40.0002V17.4998C40.0002 16.1193 38.8805 15.0001 37.5 15.0001C36.1195 15.0001 34.9998 16.1193 34.9998 17.4998V17.8183C33.8078 16.4279 31.7146 16.2677 30.3246 17.4598C29.1027 18.5073 28.8097 20.2815 29.6299 21.6666H25.8335C25.3731 21.6666 25 22.0397 25 22.4997V26.6665H1.66664V1.66663H48.3334V26.6665Z" fill="#006298"/>
<path d="M17.7441 11.0774L6.9107 21.9107L8.08906 23.0891L18.3334 12.8448L24.411 18.9223C24.7017 19.2141 25.1621 19.2496 25.4944 19.0058L36.6669 10.8115V13.3334H38.3335V9.16665C38.3335 8.70622 37.9604 8.33315 37.5 8.33315H32.5001V9.99978H34.9541L25.0832 17.2389L18.9217 11.0774C18.5963 10.7528 18.0695 10.7528 17.7441 11.0774Z" fill="#006298"/>
<path d="M40.8332 9.99978H45.8332C46.2936 9.99978 46.6667 9.62671 46.6667 9.16666V4.16676C46.6667 3.70633 46.2932 3.33326 45.8332 3.33364C45.6123 3.33364 45.4002 3.42138 45.2442 3.5774L43.3334 5.48817L41.4226 3.5774C41.0968 3.25201 40.5693 3.25201 40.2439 3.57778C40.0878 3.7338 40.0001 3.94551 40.0001 4.16676V9.16666C40.0001 9.62671 40.3732 9.99978 40.8332 9.99978ZM41.6668 6.17824L42.744 7.25589C43.0694 7.58128 43.597 7.58128 43.9224 7.25589L45 6.17824V8.33315H41.6668V6.17824Z" fill="#006298"/>
<path d="M6.66656 15.8332C8.04748 15.8332 9.16671 14.7139 9.16671 13.3334C9.16671 11.9525 8.04748 10.8333 6.66656 10.8333C5.28602 10.8333 4.16679 11.9525 4.16679 13.3334C4.16679 14.7139 5.28602 15.8332 6.66656 15.8332ZM6.66656 12.4999C7.12699 12.4999 7.50007 12.873 7.50007 13.3334C7.50007 13.7935 7.12699 14.1665 6.66656 14.1665C6.20651 14.1665 5.83343 13.7935 5.83343 13.3334C5.83343 12.873 6.20651 12.4999 6.66656 12.4999Z" fill="#006298"/>
<path d="M15.8333 9.16666C17.2138 9.16666 18.3334 8.04743 18.3334 6.66652C18.3334 5.28599 17.2138 4.16676 15.8333 4.16676C14.4527 4.16676 13.3335 5.28599 13.3335 6.66652C13.3335 8.04743 14.4527 9.16666 15.8333 9.16666ZM15.8333 5.83339C16.2937 5.83339 16.6668 6.20647 16.6668 6.66652C16.6668 7.12695 16.2937 7.50002 15.8333 7.50002C15.3732 7.50002 15.0001 7.12695 15.0001 6.66652C15.0001 6.20647 15.3732 5.83339 15.8333 5.83339Z" fill="#006298"/>
<path d="M23.9223 9.75564L25 8.67838L26.0776 9.75564L27.256 8.57729L26.1783 7.50002L27.256 6.42238L26.0776 5.24403L25 6.32167L23.9223 5.24403L22.744 6.42238L23.8216 7.50002L22.744 8.57729L23.9223 9.75564Z" fill="#006298"/>
<path d="M19.4107 18.5774L18.3334 19.6547L17.2558 18.5774L16.0774 19.7558L17.1551 20.8331L16.0774 21.9107L17.2558 23.0891L18.3334 22.0114L19.4107 23.0891L20.589 21.9107L19.5118 20.8331L20.589 19.7558L19.4107 18.5774Z" fill="#006298"/>
    </symbol>
</svg>
