<svg xmlns="http://www.w3.org/2000/svg">
    <symbol id="st-011" width="45" height="45" viewBox="0 0 45 45" fill="none">
<path d="M45 22.1155C45.0007 21.2486 44.6626 20.4335 44.0492 19.8211C43.436 19.2084 42.6188 18.871 41.7491 18.871H41.6577C40.8085 18.871 40.0108 19.2013 39.4119 19.8016L31.9355 27.2787V0H7.68334L0 7.68334V45H31.9355V36.5909L41.371 27.1554L41.5393 27.3237C41.8937 27.6785 42.0968 28.1686 42.0968 28.6694C42.0968 29.1701 41.8937 29.6603 41.5393 30.015L36.2903 35.264C35.8222 35.7321 35.5645 36.3541 35.5645 37.0161C35.5645 37.6781 35.8222 38.3008 36.2903 38.7683L37.2288 39.7067L38.2551 38.6804L37.3167 37.7419C37.1228 37.5474 37.0161 37.2904 37.0161 37.0161C37.0161 36.7418 37.1228 36.4849 37.3167 36.2903L42.5656 31.0413C43.1904 30.4165 43.5484 29.5525 43.5484 28.6694C43.5484 27.7862 43.1904 26.9222 42.5656 26.2974L42.3973 26.129L44.036 24.4903C44.6573 23.869 45 23.0429 45 22.1155ZM7.25806 2.47795V7.25806H2.47795L7.25806 2.47795ZM30.4839 43.5484H1.45161V8.70968H8.70968V1.45161H30.4839V28.731L23.3048 35.9108L21.9528 40.6452H20.8974C20.8198 40.6452 20.75 40.6016 20.7153 40.5328L19.5415 38.1853L20.1688 37.1809C20.7443 36.2591 21.0484 35.1988 21.0484 34.1129C21.0484 32.9126 20.0713 31.9355 18.871 31.9355C17.6706 31.9355 16.6935 32.9126 16.6935 34.1129V34.3698C16.6935 35.2633 16.9048 36.1588 17.3045 36.958L17.8787 38.1055L16.3508 40.5502C16.3147 40.609 16.2481 40.6452 16.1783 40.6452H15.2419C15.1484 40.6452 15.0669 40.5814 15.0445 40.4906L14.6699 38.9947C14.4857 38.2572 13.8251 37.7419 13.0645 37.7419C12.304 37.7419 11.6434 38.2572 11.4591 38.9954L11.0845 40.4914C11.0622 40.5814 10.9807 40.6452 10.8871 40.6452H8.70968V42.0968H10.8871C11.6476 42.0968 12.3082 41.5815 12.4925 40.8433L12.8671 39.3474C12.9121 39.1659 13.2169 39.1659 13.2626 39.3474L13.6372 40.8433C13.8208 41.5815 14.4814 42.0968 15.2419 42.0968H16.1783C16.7531 42.0968 17.2787 41.8065 17.582 41.3196L18.6395 39.6277L19.4167 41.1824C19.6992 41.7463 20.2666 42.0968 20.8974 42.0968H22.6017L27.9609 40.5661L30.4839 38.0425V43.5484ZM24.311 37.676L26.195 39.56L23.5568 40.3142L24.311 37.676ZM18.9383 36.4108L18.7802 36.6635L18.603 36.3091C18.3032 35.7098 18.1452 35.0389 18.1452 34.3698V34.1129C18.1452 33.7124 18.4705 33.3871 18.871 33.3871C19.2714 33.3871 19.5968 33.7124 19.5968 34.1129C19.5968 34.9266 19.3696 35.7212 18.9383 36.4108ZM27.5806 38.893L24.9779 36.2903L37.7412 23.5256L40.3446 26.129L27.5806 38.893ZM43.0097 23.464L41.371 25.1027L38.7676 22.4993L40.4389 20.8276C40.7635 20.5019 41.1966 20.3226 41.6577 20.3226H41.7491C42.2318 20.3226 42.6847 20.509 43.0242 20.8489C43.362 21.1862 43.5484 21.6363 43.5484 22.1647C43.5484 22.6552 43.3567 23.117 43.0097 23.464Z" fill="#006298"/>
<path d="M5.80645 40.6452H7.25806V42.0968H5.80645V40.6452Z" fill="#006298"/>
<path d="M27.5806 2.90323H29.0323V4.35484H27.5806V2.90323Z" fill="#006298"/>
<path d="M17.4194 2.90323H26.129V4.35484H17.4194V2.90323Z" fill="#006298"/>
<path d="M27.5806 5.80645H29.0323V7.25806H27.5806V5.80645Z" fill="#006298"/>
<path d="M17.4194 5.80645H26.129V7.25806H17.4194V5.80645Z" fill="#006298"/>
<path d="M27.5806 8.70968H29.0323V10.1613H27.5806V8.70968Z" fill="#006298"/>
<path d="M17.4194 8.70968H26.129V10.1613H17.4194V8.70968Z" fill="#006298"/>
<path d="M2.90323 11.6129H29.0323V13.0645H2.90323V11.6129Z" fill="#006298"/>
<path d="M2.90323 14.5161H29.0323V15.9677H2.90323V14.5161Z" fill="#006298"/>
<path d="M2.90323 17.4194H29.0323V18.871H2.90323V17.4194Z" fill="#006298"/>
<path d="M13.0645 21.0484H14.5161V22.5H13.0645V21.0484Z" fill="#006298"/>
<path d="M15.9677 21.0484H29.0323V22.5H15.9677V21.0484Z" fill="#006298"/>
<path d="M13.0645 23.9516H29.0323V25.4032H13.0645V23.9516Z" fill="#006298"/>
<path d="M13.0645 26.8548H29.0323V28.3065H13.0645V26.8548Z" fill="#006298"/>
<path d="M7.25806 29.0323C9.65982 29.0323 11.6129 27.0792 11.6129 24.6774C11.6129 22.2757 9.65982 20.3226 7.25806 20.3226C4.85631 20.3226 2.90323 22.2757 2.90323 24.6774C2.90323 27.0792 4.85631 29.0323 7.25806 29.0323ZM7.25806 21.7742C8.85923 21.7742 10.1613 23.0763 10.1613 24.6774C10.1613 26.2786 8.85923 27.5806 7.25806 27.5806C5.6569 27.5806 4.35484 26.2786 4.35484 24.6774C4.35484 23.0763 5.6569 21.7742 7.25806 21.7742Z" fill="#006298"/>
<path d="M2.90323 30.4839H13.0645V31.9355H2.90323V30.4839Z" fill="#006298"/>
<path d="M2.90323 33.3871H13.0645V34.8387H2.90323V33.3871Z" fill="#006298"/>
    </symbol>
</svg>
