<svg  xmlns="http://www.w3.org/2000/svg">
    <symbol id="st-09" width="46" height="48" viewBox="0 0 46 48" fill="none">
<path d="M45.8377 3.26518C45.7198 3.12183 45.551 3.0323 45.3686 3.01637L35.1658 2.12415L34.9809 0.618712C34.9333 0.231431 34.5872 -0.0430685 34.2099 0.0055877L24.7452 1.22396C24.708 1.21402 24.6698 1.20652 24.63 1.20306L11.621 0.0653064C11.2464 0.0315564 10.9064 0.326494 10.8745 0.709274L10.6806 3.03427L0.604055 4.3314C0.231207 4.3794 -0.0415615 4.73874 0.00522763 5.12077L5.14873 47.009C5.17208 47.2 5.13207 47.3836 5.20834 47.5684C5.31529 47.8272 5.56984 48 5.84444 48H39.7147C40.0961 48 40.405 47.6837 40.405 47.2932V46.3727L41.7419 46.4896C42.1165 46.5229 42.4566 46.2286 42.4885 45.8456L45.9975 3.7809C46.0131 3.59405 45.9557 3.40862 45.8377 3.26518ZM5.15414 35.7208L1.46128 5.64568L5.15414 5.17036V35.7208ZM12.1914 1.5339L18.2327 2.06218L12.0813 2.85408L12.1914 1.5339ZM33.6972 1.4963L34.0499 4.36852H11.3832L33.6972 1.4963ZM41.1717 45.021L40.405 44.954V24.2995C40.405 23.9091 40.0961 23.5927 39.7147 23.5927C39.3334 23.5927 39.0244 23.909 39.0244 24.2995V46.5864H6.53474V5.78208H39.0245V21.0013C39.0245 21.3917 39.3335 21.708 39.7148 21.708C40.0962 21.708 40.4051 21.3917 40.4051 21.0013V5.0753C40.4051 4.68493 40.0962 4.36852 39.7148 4.36852H35.4414L35.3419 3.55824L44.5632 4.36468L41.1717 45.021Z" fill="#006298"/>
<path d="M36.0332 8.13802H32.3516C32.1208 8.13802 31.9052 8.25605 31.7773 8.45274L30.2149 10.8524C28.5331 9.61889 26.4741 8.89186 24.2522 8.89186C23.871 8.89186 23.5619 9.20817 23.5619 9.59864V19.3993C23.5619 19.7896 23.8709 20.106 24.2522 20.106H33.8243C34.2057 20.106 34.5146 19.7897 34.5146 19.3993C34.5146 16.3902 33.2725 13.6729 31.2861 11.7555L32.7212 9.55158H36.0333C36.4146 9.55158 36.7236 9.23527 36.7236 8.8448C36.7236 8.45433 36.4145 8.13802 36.0332 8.13802ZM33.1075 18.6925H24.9425V10.3326C26.6166 10.465 28.161 11.0762 29.448 12.0301L28.8321 12.9762C28.6397 13.2715 28.6961 13.6805 28.9618 13.909C29.273 14.1765 29.7556 14.1059 29.9808 13.7603L30.5079 12.9507C31.9756 14.4434 32.9386 16.4556 33.1075 18.6925Z" fill="#006298"/>
<path d="M36.0332 31.5086H29.789L28.6888 29.7062C30.4711 27.8153 31.5693 25.2439 31.5693 22.4148C31.5693 22.0243 31.2604 21.708 30.879 21.708H21.9972V12.6142C21.9972 12.2238 21.6882 11.9074 21.3069 11.9074C15.6483 11.9074 11.0445 16.6211 11.0445 22.4148C11.0445 28.2086 15.6483 32.9222 21.3069 32.9222C23.6988 32.9222 25.902 32.08 27.649 30.6701L28.821 32.5901C28.9472 32.7967 29.1684 32.9222 29.4064 32.9222H36.0332C36.4145 32.9222 36.7235 32.6059 36.7235 32.2154C36.7235 31.825 36.4145 31.5086 36.0332 31.5086ZM26.3103 25.8097C26.1083 25.4785 25.6823 25.378 25.3591 25.5849C25.0358 25.7917 24.9374 26.2278 25.1395 26.5588L26.9125 29.4634C25.3826 30.7413 23.4307 31.5087 21.307 31.5087C16.4096 31.5087 12.4252 27.4292 12.4252 22.4149C12.4252 17.6384 16.0406 13.7101 20.6167 13.3483V22.4149C20.6167 22.8053 20.9257 23.1217 21.307 23.1217H30.1622C30.008 25.1655 29.1909 27.0221 27.9316 28.4658L26.3103 25.8097Z" fill="#006298"/>
<path d="M15.4164 35.278H9.52594C9.14476 35.278 8.83564 35.5944 8.83564 35.9848C8.83564 36.3753 9.14467 36.6916 9.52594 36.6916H15.4164C15.7977 36.6916 16.1067 36.3753 16.1067 35.9848C16.1067 35.5944 15.7977 35.278 15.4164 35.278Z" fill="#006298"/>
<path d="M24.2522 35.278H18.3618C17.9805 35.278 17.6715 35.5944 17.6715 35.9848C17.6715 36.3753 17.9805 36.6916 18.3618 36.6916H24.2522C24.6335 36.6916 24.9425 36.3753 24.9425 35.9848C24.9425 35.5944 24.6335 35.278 24.2522 35.278Z" fill="#006298"/>
<path d="M19.098 39.0475H9.52594C9.14476 39.0475 8.83564 39.3639 8.83564 39.7543C8.83564 40.1448 9.14467 40.4611 9.52594 40.4611H19.098C19.4793 40.4611 19.7883 40.1448 19.7883 39.7543C19.7883 39.3639 19.4792 39.0475 19.098 39.0475Z" fill="#006298"/>
<path d="M24.2522 39.0475H22.0433C21.6621 39.0475 21.353 39.3639 21.353 39.7543C21.353 40.1448 21.662 40.4611 22.0433 40.4611H24.2522C24.6335 40.4611 24.9425 40.1448 24.9425 39.7543C24.9425 39.3639 24.6335 39.0475 24.2522 39.0475Z" fill="#006298"/>
<path d="M12.4712 42.8169H9.52594C9.14476 42.8169 8.83564 43.1333 8.83564 43.5237C8.83564 43.9142 9.14467 44.2305 9.52594 44.2305H12.4712C12.8525 44.2305 13.1615 43.9142 13.1615 43.5237C13.1615 43.1333 12.8525 42.8169 12.4712 42.8169Z" fill="#006298"/>
<path d="M24.2522 42.8169H15.4165C15.0353 42.8169 14.7262 43.1333 14.7262 43.5237C14.7262 43.9142 15.0352 44.2305 15.4165 44.2305H24.2522C24.6335 44.2305 24.9425 43.9142 24.9425 43.5237C24.9425 43.1333 24.6335 42.8169 24.2522 42.8169Z" fill="#006298"/>
    </symbol>
</svg>
