<svg  xmlns="http://www.w3.org/2000/svg">
    <symbol id="st-05" width="46" height="46" viewBox="0 0 46 46" fill="none">
<path d="M28.609 22.9284C27.9207 22.2378 26.8783 22.058 26.0026 22.4787L24.8144 21.2846L26.4395 19.6331C27.3363 18.725 27.3363 17.2538 26.4395 16.3456L25.9029 15.7951C26.9225 14.7562 27.4974 14.3607 27.6278 13.3683C28.582 13.5121 29.5476 13.1933 30.2341 12.5077L31.3227 11.4067C31.6106 11.1158 31.7724 10.7211 31.7724 10.3095C31.7724 9.89796 31.6106 9.50327 31.3227 9.21241L22.6449 0.450933C22.047 -0.150311 21.0812 -0.150311 20.4832 0.450933L19.3946 1.54418C18.7144 2.24032 18.399 3.22038 18.5437 4.18813C18.0457 4.25378 17.5826 4.48253 17.2252 4.83943L5.30477 16.8961C4.94458 17.2627 4.71532 17.7401 4.65318 18.253C3.70261 18.1031 2.7376 18.4132 2.04678 19.0904L0.965898 20.1914C0.371451 20.7962 0.371451 21.7731 0.965898 22.3779L9.63599 31.1549C9.92356 31.4461 10.3138 31.6097 10.7207 31.6097C11.1276 31.6097 11.5178 31.4461 11.8054 31.1549L12.894 30.0539C13.5913 29.3587 13.909 28.3629 13.7449 27.3867C14.7414 27.2471 15.1324 26.6656 16.1443 25.6421C16.7882 26.2934 17.2482 26.8672 18.3137 26.8672C18.9165 26.8729 19.4973 26.639 19.9312 26.2159L21.5564 24.5721L22.7369 25.7739C22.321 26.6596 22.4988 27.714 23.1816 28.4101C30.4641 35.7605 10.7322 15.7564 39.4485 44.8631C40.9473 46.379 43.3772 46.379 44.8759 44.8631C46.3747 43.3472 46.3747 40.8895 44.8759 39.3736C10.8472 4.96348 43.8104 38.2959 28.609 22.9284ZM37.2867 40.4746L40.5371 37.1871L41.618 38.2804L38.3676 41.5678L37.2867 40.4746ZM26.9838 30.0539L30.2341 26.7664L39.4332 36.0706L36.1829 39.3581L26.9838 30.0539ZM20.4832 2.64518L21.5641 1.54418L30.2341 10.3289L29.1303 11.4144C28.8427 11.7056 28.4525 11.8692 28.0455 11.8692C27.6386 11.8692 27.2484 11.7056 26.9608 11.4144L20.4832 4.83943C20.1953 4.54856 20.0335 4.15387 20.0335 3.7423C20.0335 3.33073 20.1953 2.93604 20.4832 2.64518ZM11.8054 28.9374L10.7322 30.0539L2.04678 21.2846L3.13534 20.1914C3.42291 19.9002 3.81314 19.7366 4.22006 19.7366C4.62697 19.7366 5.0172 19.9002 5.30477 20.1914L11.8054 26.7664C12.3898 27.3694 12.3898 28.3344 11.8054 28.9374ZM13.9749 25.6499C13.6759 25.9505 13.193 25.9505 12.894 25.6499L8.5551 21.2614L10.1803 19.6331C10.3254 19.4876 10.407 19.2894 10.407 19.0826C10.407 18.8759 10.3254 18.6777 10.1803 18.5321C9.88126 18.2315 9.39837 18.2315 9.09937 18.5321L7.47421 20.1914C6.27834 18.9818 6.13269 18.9508 6.13269 18.5399C6.13353 18.3365 6.21337 18.1416 6.355 17.9971L18.3137 5.93267C18.6127 5.63205 19.0956 5.63205 19.3946 5.93267L20.4832 7.03367L11.2841 16.3379C11.0685 16.5604 11.0055 16.8919 11.1242 17.1795C11.243 17.467 11.5203 17.6547 11.8284 17.656C12.0322 17.6572 12.228 17.5763 12.3727 17.4311L21.5717 8.12692L25.9106 12.5154C26.2078 12.8178 26.2078 13.3062 25.9106 13.6087C25.9796 13.6087 25.8033 13.6784 13.9749 25.6731V25.6499ZM18.8503 25.0994C18.5513 25.4 18.0685 25.4 17.7695 25.0994L17.2252 24.5489L24.8144 16.8729L25.3587 17.4234C25.6559 17.7258 25.6559 18.2142 25.3587 18.5166C22.2847 21.6491 25.8723 18.0359 18.8503 25.1226V25.0994ZM23.7642 22.3779L24.8144 23.5099L23.7642 24.5721L22.6449 23.5099L23.7642 22.3779ZM24.0785 26.7664C24.0793 26.5592 24.1621 26.3609 24.3084 26.2159L26.4702 24.0294C26.6141 23.8826 26.8101 23.8 27.0145 23.8C27.2189 23.8 27.4148 23.8826 27.5588 24.0294L29.1303 25.6731L25.9029 28.9374C24.1321 27.1773 24.0478 27.1851 24.0478 26.7664H24.0785ZM43.7874 43.7621C42.8895 44.6691 41.4349 44.6691 40.5371 43.7621L39.4485 42.6688L42.7065 39.3736L43.7874 40.4746C44.6841 41.3827 44.6841 42.8539 43.7874 43.7621Z" fill="#006298"/>
<path d="M19.1646 40.5676V39.7923C19.1646 38.0794 17.7918 36.6909 16.0983 36.6909H5.3661C3.67261 36.6909 2.29976 38.0794 2.29976 39.7923V40.5676C1.02964 40.5676 0 41.6091 0 42.8937V45.2197C0 45.648 0.343212 45.9951 0.766586 45.9951H20.6978C21.1212 45.9951 21.4644 45.648 21.4644 45.2197V42.8937C21.4644 41.6091 20.4348 40.5676 19.1646 40.5676ZM3.83293 39.7923C3.83293 38.9359 4.51935 38.2416 5.3661 38.2416H16.0983C16.9451 38.2416 17.6315 38.9359 17.6315 39.7923V40.5676H3.83293V39.7923ZM19.9312 44.4444H1.53317V42.8937C1.53317 42.4655 1.87638 42.1183 2.29976 42.1183H19.1646C19.588 42.1183 19.9312 42.4655 19.9312 42.8937V44.4444Z" fill="#006298"/>
<path d="M19.1646 33.5895V30.4881C19.1646 30.0599 18.8214 29.7127 18.3981 29.7127C17.9747 29.7127 17.6315 30.0599 17.6315 30.4881V33.5895C17.6315 34.0177 17.9747 34.3648 18.3981 34.3648C18.8214 34.3648 19.1646 34.0177 19.1646 33.5895Z" fill="#006298"/>
<path d="M24.5307 35.9155H21.4644C21.041 35.9155 20.6978 36.2627 20.6978 36.6909C20.6978 37.1191 21.041 37.4662 21.4644 37.4662H24.5307C24.9541 37.4662 25.2973 37.1191 25.2973 36.6909C25.2973 36.2627 24.9541 35.9155 24.5307 35.9155Z" fill="#006298"/>
<path d="M21.2421 34.9153L23.5419 32.5893C23.8424 32.2852 23.8424 31.7923 23.5419 31.4883C23.2413 31.1842 22.7539 31.1842 22.4533 31.4883L20.1535 33.8143C19.9324 34.0361 19.8659 34.3712 19.9854 34.6622C20.1048 34.9531 20.3864 35.142 20.6978 35.1402C20.9016 35.1414 21.0974 35.0605 21.2421 34.9153Z" fill="#006298"/>
    </symbol>
</svg>
