<svg xmlns="http://www.w3.org/2000/svg">
    <symbol id="st-06" width="42" height="42" viewBox="0 0 42 42" fill="none">
<path d="M30.1709 5.17708C23.5288 -1.46579 12.8509 -1.75168 5.86289 4.52626C-1.12513 10.8042 -1.98132 21.4521 3.91379 28.7661C9.8089 36.0801 20.3953 37.5042 28.0135 32.0081L29.5738 33.5678C29.5385 34.165 29.7595 34.7489 30.1814 35.1731L36.1869 41.1788C36.7146 41.706 37.4304 42.0014 38.1763 42C39.5763 42 40.1777 41.1662 41.1766 40.1673C42.2745 39.0673 42.2745 37.286 41.1766 36.186L35.1711 30.1796C34.7469 29.7574 34.1627 29.5364 33.5653 29.5719L32.0064 28.0129C37.0829 20.9824 36.3052 11.3063 30.1709 5.17708ZM6.16664 29.1785C0.676999 23.6885 -0.170268 15.0849 4.14299 8.62941C8.45625 2.17391 16.7287 -0.335587 23.9013 2.63563C31.0739 5.60684 35.1489 13.2312 33.6342 20.846C32.1196 28.4608 25.4371 33.9452 17.6735 33.9452C13.358 33.9431 9.21957 32.2288 6.16664 29.1785ZM39.1871 36.1748L36.1771 39.1851L32.6665 35.6743L35.6765 32.6641L39.1871 36.1748ZM40.1868 39.176L39.1773 40.1855C38.9096 40.4513 38.547 40.5997 38.1697 40.5978C37.7924 40.596 37.4313 40.4441 37.1662 40.1757L40.1763 37.1654C40.7339 37.7179 40.7386 38.6177 40.1868 39.176ZM34.6867 31.6742L31.6766 34.6844L31.1712 34.179C30.8925 33.8999 30.8925 33.4478 31.1712 33.1688L33.1712 31.1673C33.4508 30.8893 33.9024 30.8893 34.182 31.1673L34.6867 31.6742ZM32.1877 30.1726C31.3868 30.9734 30.3053 32.0536 30.1744 32.1866L29.1209 31.1316C29.8479 30.5193 30.5212 29.846 31.1334 29.119L32.1877 30.1726Z" fill="#06679C"/>
<path d="M28.1703 7.17364C24.3626 3.35437 18.7824 1.9022 13.5961 3.38091C8.40987 4.85962 4.43441 9.0363 3.21316 14.2894C1.9919 19.5425 3.71722 25.0447 7.71927 28.6597C7.75732 28.711 7.80485 28.7545 7.85928 28.7878C10.4794 31.119 13.8459 32.4378 17.3522 32.5065C23.4103 32.6344 28.9381 29.0673 31.3179 23.4945C33.6977 17.9216 32.4518 11.4617 28.1703 7.17364ZM4.23599 17.6745C4.22797 11.5301 8.38737 6.1625 14.339 4.63682C20.2906 3.11113 26.5191 5.81581 29.4677 11.2064C32.4163 16.597 31.3343 23.3009 26.8395 27.4899C26.3327 27.1721 26.5595 27.2855 21.7161 25.45C21.2836 25.2897 20.9976 24.8759 21.0007 24.4146C21.0007 23.4863 20.9307 23.0572 21.3507 22.7044C22.4985 21.7629 23.1895 20.3759 23.2498 18.8926C24.3325 18.8324 25.1845 17.9453 25.2008 16.861V15.5169C25.2009 14.9779 24.983 14.4618 24.5967 14.086C25.0468 11.9158 24.4175 9.73584 22.4203 8.89577C21.5432 6.33707 18.2027 5.18548 15.5602 5.4753C11.4189 5.91914 9.50222 9.96966 10.5319 13.9719C10.0699 14.352 9.8017 14.9186 9.80042 15.5169V16.861C9.81744 17.9443 10.6683 18.8304 11.75 18.8912C11.8103 20.3752 12.5018 21.7628 13.6505 22.7044C14.0831 23.067 14.0005 23.5444 14.0005 24.4146C14.0021 24.8754 13.7154 25.288 13.283 25.4472C8.43609 27.2834 8.7126 27.1714 8.36749 27.3597C5.71515 24.8368 4.22051 21.3317 4.23599 17.671V17.6745ZM9.54842 28.3657L13.7779 26.7556C14.7502 26.3851 15.3948 25.4551 15.4006 24.4146V23.5115C15.4095 22.7886 15.0975 22.0989 14.5486 21.6284C13.5869 20.8294 13.0614 19.6214 13.1325 18.3731C13.1739 18.1463 13.1126 17.9127 12.9652 17.7354C12.7174 17.4554 12.4752 17.4981 11.9005 17.4981C11.5317 17.5143 11.219 17.2297 11.2005 16.861V15.5169C11.2066 15.2559 11.3714 15.025 11.6163 14.9344C11.9595 14.7962 12.1359 14.4146 12.0188 14.0636C10.8504 10.571 12.5683 6.84321 16.1916 6.84321C18.6311 6.84321 20.6066 7.86249 21.1274 9.43341C21.147 9.48558 21.1615 9.53949 21.1708 9.59443C21.2368 9.86797 21.4551 10.0786 21.7308 10.1349C21.7622 10.1425 21.793 10.1521 21.8232 10.1636C23.2561 10.7047 23.5425 12.4037 23.205 13.8907C23.071 14.0558 23.0193 14.2729 23.0646 14.4807C23.1098 14.6885 23.247 14.8644 23.4375 14.959C23.6567 15.0594 23.7979 15.2778 23.7994 15.519V16.8631C23.7797 17.2304 23.4682 17.5135 23.1007 17.4981C22.5596 17.4981 22.3055 17.4455 22.0423 17.7375C21.8975 17.9154 21.8344 18.1462 21.8687 18.3731C21.9398 19.6214 21.4143 20.8294 20.4526 21.6284C19.4719 22.4544 19.6007 23.5255 19.6007 24.4146C19.6057 25.4546 20.2491 26.3848 21.2205 26.7563C26.3145 28.6835 25.4675 28.3664 25.6775 28.456C20.8835 32.0292 14.3021 31.9924 9.54842 28.3657Z" fill="#06679C"/>
    </symbol>
</svg>
