<svg xmlns="http://www.w3.org/2000/svg">
<symbol id="st-010" width="36" height="46" viewBox="0 0 36 46" fill="none">
    <path d="M33.75 0H6.75C6.15326 0 5.58097 0.242321 5.15901 0.673654C4.73705 1.10499 4.5 1.69 4.5 2.3V4.6H2.25C1.65326 4.6 1.08097 4.84232 0.659009 5.27365C0.237053 5.70499 0 6.29 0 6.9V43.7C0 44.31 0.237053 44.895 0.659009 45.3263C1.08097 45.7577 1.65326 46 2.25 46H29.25C29.8467 46 30.419 45.7577 30.841 45.3263C31.2629 44.895 31.5 44.31 31.5 43.7V41.4H33.75C34.3467 41.4 34.919 41.1577 35.341 40.7263C35.7629 40.295 36 39.71 36 39.1V2.3C36 1.69 35.7629 1.10499 35.341 0.673654C34.919 0.242321 34.3467 0 33.75 0ZM30 43.7C30 43.9033 29.921 44.0983 29.7803 44.2421C29.6397 44.3859 29.4489 44.4667 29.25 44.4667H2.25C2.05109 44.4667 1.86032 44.3859 1.71967 44.2421C1.57902 44.0983 1.5 43.9033 1.5 43.7V6.9C1.5 6.69667 1.57902 6.50166 1.71967 6.35788C1.86032 6.21411 2.05109 6.13333 2.25 6.13333H22.5V12.2667C22.5 12.4312 22.5517 12.5914 22.6476 12.7236C22.7435 12.8557 22.8785 12.9529 23.0325 13.0006C23.1866 13.0483 23.3516 13.0441 23.5031 12.9885C23.6547 12.933 23.7847 12.8291 23.874 12.6922L24.75 11.3467L25.626 12.6899C25.7152 12.8266 25.845 12.9304 25.9963 12.986C26.1476 13.0416 26.3124 13.046 26.4664 12.9986C26.6203 12.9512 26.7553 12.8545 26.8514 12.7227C26.9475 12.5909 26.9996 12.431 27 12.2667V6.13333H29.25C29.4489 6.13333 29.6397 6.21411 29.7803 6.35788C29.921 6.50166 30 6.69667 30 6.9V43.7ZM24 6.13333H25.5V9.73667L25.374 9.54347C25.3055 9.43847 25.2127 9.35237 25.1039 9.29283C24.995 9.23328 24.8735 9.20213 24.75 9.20213C24.6265 9.20213 24.505 9.23328 24.3961 9.29283C24.2873 9.35237 24.1945 9.43847 24.126 9.54347L24 9.73667V6.13333ZM34.5 39.1C34.5 39.3033 34.421 39.4983 34.2803 39.6421C34.1397 39.7859 33.9489 39.8667 33.75 39.8667H31.5V6.9C31.5 6.29 31.2629 5.70499 30.841 5.27365C30.419 4.84232 29.8467 4.6 29.25 4.6H6V2.3C6 2.09667 6.07902 1.90166 6.21967 1.75788C6.36032 1.61411 6.55109 1.53333 6.75 1.53333H33.75C33.9489 1.53333 34.1397 1.61411 34.2803 1.75788C34.421 1.90166 34.5 2.09667 34.5 2.3V39.1Z" fill="#006298"/>
<path d="M26.25 18.4H5.25C5.05109 18.4 4.86032 18.4808 4.71967 18.6245C4.57902 18.7683 4.5 18.9633 4.5 19.1667V36.0333C4.5 36.2367 4.57902 36.4317 4.71967 36.5754C4.86032 36.7192 5.05109 36.8 5.25 36.8H26.25C26.4489 36.8 26.6397 36.7192 26.7803 36.5754C26.921 36.4317 27 36.2367 27 36.0333V19.1667C27 18.9633 26.921 18.7683 26.7803 18.6245C26.6397 18.4808 26.4489 18.4 26.25 18.4ZM25.5 23H12V19.9333H25.5V23ZM15.75 24.5333H18V35.2667H15.75V24.5333ZM14.25 35.2667H12V24.5333H14.25V35.2667ZM19.5 24.5333H21.75V35.2667H19.5V24.5333ZM10.5 19.9333V23H6V19.9333H10.5ZM6 24.5333H10.5V35.2667H6V24.5333ZM23.25 35.2667V24.5333H25.5V35.2667H23.25Z" fill="#006298"/>
<path d="M4.5 12.2667H10.5V13.8H4.5V12.2667Z" fill="#006298"/>
<path d="M4.5 9.2H6V10.7333H4.5V9.2Z" fill="#006298"/>
<path d="M7.5 9.2H10.5V10.7333H7.5V9.2Z" fill="#006298"/>
<path d="M12.75 15.3333H18.75V16.8667H12.75V15.3333Z" fill="#006298"/>
<path d="M25.575 39.376C25.3829 39.0575 25.1143 38.7946 24.7947 38.6122C24.4751 38.4298 24.1152 38.334 23.7491 38.334C23.3831 38.334 23.0232 38.4298 22.7036 38.6122C22.384 38.7946 22.1153 39.0575 21.9232 39.376C21.6232 39.7478 21.5018 39.8674 21.2483 39.8674C20.9948 39.8674 20.877 39.7478 20.5732 39.3768C20.3723 39.0673 20.1021 38.8112 19.785 38.6297C19.468 38.4483 19.1131 38.3467 18.75 38.3333V39.8667C19.0035 39.8667 19.125 39.9863 19.425 40.3581C19.6171 40.6768 19.8859 40.9398 20.2056 41.1223C20.5253 41.3048 20.8854 41.4006 21.2516 41.4006C21.6178 41.4006 21.9779 41.3048 22.2976 41.1223C22.6174 40.9398 22.8861 40.6768 23.0783 40.3581C23.3783 39.987 23.4998 39.8674 23.7533 39.8674C23.994 39.8674 24.1065 39.9656 24.4282 40.3581C24.629 40.6673 24.899 40.9232 25.2158 41.1044C25.5326 41.2856 25.8872 41.3869 26.25 41.4V39.8667C26.0093 39.8667 25.8967 39.7685 25.575 39.376Z" fill="#006298"/>
</symbol>
</svg>
