<svg xmlns="http://www.w3.org/2000/svg">
<symbol id="st-04" width="45" height="33" viewBox="0 0 45 33" fill="none">
    <path d="M6.74992 17.7002H6.84992V17.6002V1.10023C6.84992 0.793574 6.95397 0.545478 7.12928 0.374065C7.30479 0.202457 7.55965 0.1 7.87517 0.1H43.8753C44.1908 0.1 44.4455 0.202453 44.6209 0.374042C44.7961 0.545442 44.9 0.79354 44.9 1.10023V27.4998C44.9 27.8065 44.7961 28.0546 44.6209 28.226C44.4455 28.3976 44.1908 28.5001 43.8753 28.5001H20.2503H20.1503V28.6001V31.8998C20.1503 32.2064 20.0462 32.4545 19.8709 32.6259C19.6954 32.7975 19.4406 32.9 19.125 32.9H1.12524C0.80973 32.9 0.554864 32.7975 0.379354 32.6259C0.204045 32.4545 0.1 32.2064 0.1 31.8998V22.0002C0.1 21.8469 0.125913 21.7238 0.175323 21.6149C0.224956 21.5056 0.300658 21.4055 0.407222 21.3013L3.78244 18.0016L3.71253 17.9301L3.78245 18.0016C3.99119 17.7974 4.19192 17.7002 4.49995 17.7002H6.74992ZM42.85 2.19997V2.09997H42.75H8.9999H8.8999V2.19997V5.93976V6.00243L8.9563 6.02975L21.4442 12.0798L21.5075 12.1104L21.5577 12.0613L22.5664 11.075C24.8838 9.24458 28.3057 9.67502 30.1842 12.0518L30.234 12.1148L30.3062 12.0798L42.7936 6.02975L42.85 6.00243V5.93976V2.19997ZM2.18007 22.3682L2.14997 22.3977V22.4398V26.4001V26.5001H2.24997H5.1751H5.21587L5.24502 26.4716L6.81985 24.9313L6.84992 24.9018V24.8598V23.0999C6.84992 22.7932 6.95396 22.5453 7.12925 22.374C7.30475 22.2025 7.55962 22.1002 7.87517 22.1002H12.3751C12.7348 22.1002 13.0424 21.9826 13.2606 21.7691C13.479 21.5554 13.5998 21.2534 13.5998 20.8999C13.5998 20.5465 13.479 20.2446 13.2606 20.031C13.0424 19.8176 12.7347 19.7002 12.3751 19.7002H4.95005H4.90929L4.88014 19.7287L2.18007 22.3682ZM2.14997 30.8V30.9H2.24997H17.8998H17.9998H18.0003V30.8H18.0998V28.6001V28.5001H17.9998H7.87517C7.46814 28.5001 7.05992 28.1982 6.9596 27.8054L6.91674 27.6376L6.79283 27.7586L6.34274 28.1982L6.3427 28.1982C6.13386 28.4024 5.93311 28.5001 5.62519 28.5001H2.24997H2.14997V28.6001V30.8ZM8.8999 26.4001V26.5001H8.9999H42.75H42.85V26.4001V8.35977V8.19957L42.7061 8.26993L31.2312 13.8804L31.158 13.9161L31.1782 13.995C31.2906 14.4336 31.4002 14.9734 31.4002 15.4003C31.4002 18.4226 28.972 20.7999 25.875 20.7999C22.7779 20.7999 20.3503 18.4226 20.3503 15.4003C20.3503 14.9733 20.4598 14.4331 20.5717 13.995L20.5918 13.9161L20.5187 13.8804L9.04382 8.26993L8.8999 8.19957V8.35977V17.6002V17.7002H8.9999H12.3751C14.2342 17.7002 15.6498 19.0871 15.6498 20.8999C15.6498 22.7128 14.2347 24.1001 12.3751 24.1001H8.9999H8.8999V24.2001V26.4001ZM0.1 3.4002H4.39995V5.40017H0.1V3.4002ZM0.1 7.80013H4.39995V9.8001H0.1V7.80013ZM2.34997 12.2001H4.39995V14.2H2.34997V12.2001ZM25.875 18.8C27.8407 18.8 29.3502 17.3273 29.3502 15.4003C29.3502 13.4728 27.8407 12.0001 25.875 12.0001C23.9097 12.0001 22.4003 13.4728 22.4003 15.4003C22.4003 17.3272 23.9092 18.8 25.875 18.8Z" fill="#06679C" stroke="white" stroke-width="0.2"/>
</symbol>
</svg>
