<svg xmlns="http://www.w3.org/2000/svg">
    <symbol id="st-08" width="47" height="48" viewBox="0 0 47 48" fill="none">
<path d="M46.5775 28.9037C45.6976 27.4155 43.7758 26.9045 42.2638 27.757L35.5265 31.6139C35.3804 31.2677 35.1692 30.9522 34.9048 30.6841C34.3143 30.0943 33.5107 29.7635 32.6732 29.7654H20.8328C20.6986 29.7654 20.5664 29.7994 20.4493 29.8641L15.2282 32.7467L14.3483 30.3483C14.1999 29.9413 13.747 29.7306 13.3369 29.8782L5.91705 32.557C5.71971 32.6278 5.55937 32.7735 5.47034 32.9617C5.38169 33.1503 5.37167 33.366 5.44336 33.5614L5.71354 34.2969L0.521043 36.1767C0.110947 36.324 -0.101039 36.7734 0.0473512 37.18L3.83149 47.483C3.97988 47.8899 4.43276 48.1003 4.84286 47.953L10.0357 46.077L10.3059 46.8132C10.4543 47.2202 10.9068 47.4306 11.3169 47.2829L18.7368 44.6041C19.1469 44.4568 19.3593 44.0078 19.2105 43.6009L19.0174 43.0815H27.937C28.0754 43.0815 28.2118 43.0452 28.3317 42.9767L45.4212 33.1854C46.4033 32.6301 47.0073 31.5921 46.9999 30.4703C46.9992 29.9207 46.8535 29.3806 46.5775 28.9037ZM5.0456 46.2147L1.80915 37.3785L6.2597 35.7702L9.5 44.6033L5.0456 46.2147ZM11.5185 45.5442L7.19976 33.7603L13.1334 31.6162L17.4533 43.3947L11.5185 45.5442ZM44.6319 31.8284L27.7254 41.5149H18.4427L15.7736 34.238L21.0378 31.332H32.6732C33.0913 31.3312 33.493 31.4964 33.7878 31.791C33.9586 31.9604 34.0865 32.1681 34.1601 32.3964C34.2237 32.5563 34.255 32.7269 34.2519 32.8986C34.2519 33.7637 33.545 34.4652 32.6732 34.4652H23.9902V36.0318H32.6732C34.2669 36.0268 35.6063 34.8415 35.7928 33.2707L43.0501 29.1144C43.5384 28.8348 44.1401 28.8345 44.6284 29.1144C45.1167 29.394 45.4177 29.9107 45.4181 30.4703C45.4224 31.0306 45.1217 31.55 44.6319 31.8284Z" fill="#06679C"/>
<path d="M12.9392 8.6163V28.9821H14.5179V8.6163C14.5179 8.18372 14.8713 7.833 15.3073 7.833H33.4625V13.3161C33.4625 13.6615 33.6899 13.9659 34.0229 14.0657C34.3559 14.1659 34.7155 14.0382 34.9086 13.751L35.8306 12.376L36.7525 13.7483C36.9453 14.0351 37.3045 14.1633 37.6371 14.0638C37.9697 13.9644 38.1975 13.6607 38.1987 13.3161V7.833H38.988C39.4239 7.833 39.7774 8.18372 39.7774 8.6163V27.4155H41.3561V8.6163C41.3561 7.31857 40.2958 6.2664 38.988 6.2664H15.3073C13.9995 6.2664 12.9392 7.31857 12.9392 8.6163ZM36.6199 10.7314L36.4874 10.534C36.3324 10.3282 36.0892 10.2074 35.8306 10.2074C35.572 10.2074 35.3288 10.3282 35.1738 10.534L35.0412 10.7314V7.833H36.6199V10.7314Z" fill="#06679C"/>
<path d="M9.78175 5.4831V28.9821H11.3605V5.4831C11.3605 5.05052 11.7139 4.6998 12.1498 4.6998H35.8306C36.2665 4.6998 36.6199 5.05052 36.6199 5.4831H38.1987C38.1987 4.18538 37.1384 3.1332 35.8306 3.1332H12.1498C10.8421 3.1332 9.78175 4.18538 9.78175 5.4831Z" fill="#06679C"/>
<path d="M8.20303 2.3499C8.20303 1.91732 8.55647 1.5666 8.99239 1.5666H32.6732C33.1091 1.5666 33.4625 1.91732 33.4625 2.3499H35.0412C35.0412 1.05218 33.9809 0 32.6732 0H8.99239C7.68463 0 6.62431 1.05218 6.62431 2.3499V28.9821H8.20303V2.3499Z" fill="#06679C"/>
<path d="M17.6753 10.1829H22.4115V11.7495H17.6753V10.1829Z" fill="#06679C"/>
<path d="M17.6753 13.3161H22.4115V14.8827H17.6753V13.3161Z" fill="#06679C"/>
<path d="M35.0412 19.5825C35.037 15.6909 31.8587 12.537 27.937 12.5328C27.5011 12.5328 27.1476 12.8835 27.1476 13.3161V19.5825C27.1476 20.0151 27.5011 20.3658 27.937 20.3658H34.2519C34.6878 20.3658 35.0412 20.0151 35.0412 19.5825ZM28.7264 18.7992V14.1549C31.1495 14.506 33.0528 16.3946 33.4066 18.7992H28.7264Z" fill="#06679C"/>
<path d="M25.5689 28.9821C29.4907 28.9779 32.6689 25.824 32.6732 21.9324C32.6732 21.4998 32.3197 21.1491 31.8838 21.1491H26.3583V15.666C26.3583 15.2334 26.0048 14.8827 25.5689 14.8827C21.6453 14.8827 18.4647 18.0388 18.4647 21.9324C18.4647 25.8259 21.6453 28.9821 25.5689 28.9821ZM24.7796 16.5048V21.9324C24.7796 22.365 25.133 22.7157 25.5689 22.7157H31.0385C30.6312 25.5119 28.1494 27.5436 25.3053 27.4086C22.4616 27.2736 20.1864 25.0159 20.0504 22.1936C19.9143 19.3718 21.9617 16.909 24.7796 16.5048Z" fill="#06679C"/>
    </symbol>
</svg>
