<svg xmlns="http://www.w3.org/2000/svg">
    <symbol id="st-01" width="44" height="44" viewBox="0 0 44 44" fill="none">
<path d="M13.2014 2.9373C7.53162 2.9373 2.93542 7.53363 2.93542 13.2032C2.93542 18.8727 7.53162 23.4687 13.2014 23.4687C18.8712 23.4687 23.4678 18.8727 23.4678 13.2032C23.4617 7.53598 18.8689 2.94334 13.2014 2.9373ZM13.2014 22.0024C8.34169 22.0024 4.40214 18.0627 4.40214 13.2032C4.40214 8.34332 8.34169 4.40395 13.2014 4.40395C18.0615 4.40395 22.001 8.34332 22.001 13.2032C21.9957 18.0607 18.0591 21.997 13.2014 22.0024Z" fill="#006298"/>
<path d="M43.2665 15.4029H40.3334V13.2031C40.3334 12.798 40.0051 12.4696 39.6002 12.4696H36.6382C36.3411 9.15232 33.5631 6.60877 30.2322 6.60374H24.6152C20.9781 0.294043 12.914 -1.87286 6.60404 1.76438C0.294057 5.40128 -1.87294 13.465 1.76446 19.7747C2.10957 20.3732 2.50101 20.9436 2.93541 21.4807V44H4.40179V23.0128C6.25457 24.6808 8.54343 25.7873 11.0015 26.2029V30.8012H6.60169V32.2678H8.80159V35.2008H6.60169V36.6674H8.80159V39.6004H6.60169V41.067H8.80159V44H10.2683V32.2678H16.1345V44H17.6012V31.5347C17.6012 31.1295 17.2729 30.8012 16.868 30.8012H15.4013V26.2029C17.6287 25.8289 19.7222 24.887 21.4796 23.4686H24.9341V22.002H23.0115C26.435 18.209 27.3502 12.7755 25.3581 8.07005H29.3339V13.2028C29.3339 13.608 29.6622 13.9363 30.0674 13.9363H35.2004V44H36.6671V13.9363H38.8667V44H40.3334V16.8692H42.5333V44H44V16.1361C44 15.7312 43.6717 15.4029 43.2665 15.4029ZM13.9349 30.8012H12.4682V26.3643C12.7123 26.3784 12.9536 26.4016 13.2014 26.4016C13.4495 26.4016 13.6905 26.3784 13.9349 26.3643V30.8012ZM13.2014 24.9353C6.72187 24.9353 1.4687 19.6827 1.4687 13.2031C1.4687 6.72358 6.72154 1.47098 13.2014 1.47098C19.6812 1.47098 24.9341 6.72358 24.9341 13.2031C24.9264 19.6793 19.6782 24.9276 13.2014 24.9353ZM30.8006 12.4696V8.1053C33.0915 8.37251 34.8979 10.1792 35.1651 12.4696H30.8006Z" fill="#006298"/>
<path d="M8.06842 13.2032H9.53514V17.6028H8.06842V13.2032Z" fill="#006298"/>
<path d="M11.0015 11.0034H12.4682V17.6028H11.0015V11.0034Z" fill="#006298"/>
<path d="M13.9349 8.80356H15.4013V17.6028H13.9349V8.80356Z" fill="#006298"/>
<path d="M16.868 11.7365H18.3344V17.6028H16.868V11.7365Z" fill="#006298"/>
<path d="M29.334 17.6028H33.0006V19.0691H29.334V17.6028Z" fill="#006298"/>
<path d="M29.334 22.0024H33.0006V23.4687H29.334V22.0024Z" fill="#006298"/>
<path d="M29.334 26.4017H33.0006V27.8683H29.334V26.4017Z" fill="#006298"/>
<path d="M29.334 30.8013H33.0006V32.2679H29.334V30.8013Z" fill="#006298"/>
<path d="M29.3339 35.2008H33.0006V36.6674H29.3339V35.2008Z" fill="#006298"/>
<path d="M29.3339 39.6004H33.0006V41.067H29.3339V39.6004Z" fill="#006298"/>
<path d="M21.2679 26.4017H24.9341V27.8683H21.2679V26.4017Z" fill="#006298"/>
<path d="M21.2679 30.8013H24.9341V32.2679H21.2679V30.8013Z" fill="#006298"/>
<path d="M21.2679 35.2008H24.9341V36.6674H21.2679V35.2008Z" fill="#006298"/>
<path d="M21.2679 39.6004H24.9341V41.067H21.2679V39.6004Z" fill="#006298"/>
<path d="M6.60171 26.4017H9.53514V27.8683H6.60171V26.4017Z" fill="#006298"/>
    </symbol>
</svg>
