<svg xmlns="http://www.w3.org/2000/svg">
<symbol id="w-01" width="70" height="72" viewBox="0 0 70 72" fill="none">
    <path d="M64.1858 36.0395C62.7105 34.4817 61.0031 33.1341 59.1171 32.0389C60.3234 30.5194 59.9947 28.3655 58.3832 27.2283C58.3454 27.2016 58.307 27.1756 58.2682 27.1503L64.5308 21.2453C65.0263 20.7753 65.0239 20.0155 64.5254 19.5482C64.2876 19.3253 63.9662 19.1999 63.6311 19.1993H35.403C35.0466 17.1747 34.2319 15.2464 33.0143 13.5451C33.057 13.434 33.082 13.3176 33.0882 13.1995V8.39971C33.0882 7.73703 32.5183 7.19975 31.8155 7.19975C31.1127 7.19975 30.5429 7.73703 30.5429 8.39971V10.8968C29.0601 9.64032 27.3308 8.6697 25.4524 8.03972V1.19996C25.4524 0.537281 24.8826 0 24.1798 0C23.477 0 22.9072 0.537281 22.9072 1.19996V7.41694C21.2243 7.1273 19.4996 7.1273 17.8167 7.41694V2.39992C17.8167 1.73724 17.2469 1.19996 16.5441 1.19996C15.8413 1.19996 15.2715 1.73724 15.2715 2.39992V8.03972C13.3931 8.6697 11.6637 9.64032 10.181 10.8968V7.19975C10.181 6.53707 9.61116 5.99979 8.90835 5.99979C8.20555 5.99979 7.63573 6.53707 7.63573 7.19975V13.1995C7.64193 13.3176 7.66691 13.434 7.70954 13.5451C2.98494 20.1288 4.81528 29.0774 11.7977 33.5322C18.7801 37.9871 28.2705 36.2612 32.9951 29.6775C33.779 28.5853 34.3999 27.3964 34.8404 26.1447L35.9056 27.1491C34.248 28.2874 33.8726 30.4725 35.0644 32.0461C31.4519 34.1577 28.5277 37.1686 26.6142 40.747L9.11833 34.71L4.33328 33.0648C3.67374 32.8376 2.94358 33.1571 2.70178 33.7788L0.0776338 40.5406C-0.163369 41.1625 0.175467 41.8509 0.834843 42.0789L17.9936 47.9983H7.63573C6.93293 47.9983 6.36311 48.5356 6.36311 49.1983V55.1981H3.81787C3.11506 55.1981 2.54525 55.7354 2.54525 56.398V63.5978C2.54525 64.2605 3.11506 64.7977 3.81787 64.7977H5.09049V70.7975C5.09049 71.4602 5.6603 71.9975 6.36311 71.9975H31.8155C32.5183 71.9975 33.0882 71.4602 33.0882 70.7975V67.4629C36.3766 69.8815 40.3065 71.402 44.4488 71.8583C45.3362 71.9523 46.2284 71.9996 47.1213 71.9999C52.7484 72.0168 58.1804 70.0572 62.3584 66.5029C71.7846 58.5665 72.6027 44.9276 64.1858 36.0395ZM20.3619 33.5988C13.3334 33.5988 7.63573 28.2265 7.63573 21.5992C7.63573 14.972 13.3334 9.59967 20.3619 9.59967C27.3905 9.59967 33.0882 14.972 33.0882 21.5992C33.0804 28.2235 27.3871 33.5915 20.3619 33.5988ZM35.5061 23.38C35.5879 22.7895 35.6304 22.1947 35.6334 21.5992H60.5589L55.4685 26.3991H38.7055L35.5061 23.38ZM57.2603 29.999C57.2602 30.3142 57.1219 30.6156 56.8785 30.8317C56.6125 31.069 56.2597 31.2004 55.8935 31.1989H53.4501V28.799H55.8986C56.2648 28.7975 56.6175 28.9289 56.8836 29.1662C57.1253 29.3832 57.2614 29.6844 57.2603 29.999ZM50.9048 28.799V31.1989H48.3596V28.799H50.9048ZM45.8144 28.799V31.1989H43.2691V28.799H45.8144ZM40.7239 28.799V31.1989H38.2754C37.9092 31.2004 37.5563 31.069 37.2903 30.8317C36.8026 30.3903 36.7867 29.6595 37.255 29.1995C37.2666 29.1881 37.2784 29.177 37.2903 29.1662C37.5565 28.9289 37.9092 28.7975 38.2754 28.799H40.7239ZM26.725 50.3982V55.1981H24.1798V50.3982H26.725ZM23.7764 42.3273L26.1664 43.1517L24.4178 47.6587L22.0265 46.8344L23.7764 42.3273ZM5.29538 41.0626L2.9054 40.2382L4.65398 35.73L7.04396 36.5543L5.29538 41.0626ZM10.0766 42.7113L7.68536 41.8869L9.43394 37.3799L11.8252 38.2043L10.0766 42.7113ZM14.8566 44.3613L12.4717 43.5357L14.2152 39.0286L16.6052 39.853L14.8566 44.3613ZM17.2466 45.1856L18.9964 40.6786L21.3864 41.5042L19.6365 46.01L17.2466 45.1856ZM21.6346 50.3982V55.1981H19.0893V50.3982H21.6346ZM13.9988 50.3982H16.5441V55.1981H13.9988V50.3982ZM8.90835 50.3982H11.4536V55.1981H8.90835V50.3982ZM5.09049 62.3978V57.598H7.63573V62.3978H5.09049ZM10.181 69.5976H7.63573V64.7977H10.181V69.5976ZM10.181 57.598H12.7262V62.3978H10.181V57.598ZM15.2715 69.5976H12.7262V64.7977H15.2715V69.5976ZM15.2715 57.598H17.8167V62.3978H15.2715V57.598ZM20.3619 69.5976H17.8167V64.7977H20.3619V69.5976ZM20.3619 57.598H22.9072V62.3978H20.3619V57.598ZM25.4524 69.5976H22.9072V64.7977H25.4524V69.5976ZM25.4524 57.598H27.9977V62.3978H25.4524V57.598ZM30.5429 69.5976H27.9977V64.7977H30.5429V69.5976ZM29.2703 55.1981V50.3982H31.8155V55.1981H29.2703ZM37.51 67.3282C35.8991 66.5141 34.4117 65.4991 33.0882 64.3106V63.5978C33.0882 62.9351 32.5183 62.3978 31.8155 62.3978H30.5429V57.598H33.0882C33.791 57.598 34.3608 57.0607 34.3608 56.398V49.1983C34.3608 48.5356 33.791 47.9983 33.0882 47.9983H26.9961L28.9941 42.8493C29.1103 42.5504 29.0956 42.2201 28.9534 41.9313C28.9311 41.8992 28.9068 41.8685 28.8809 41.8389C30.7648 38.3028 33.7537 35.3967 37.4443 33.5124C37.7175 33.5679 37.996 33.5969 38.2754 33.5988H55.8986C56.1776 33.5975 56.4557 33.5685 56.7284 33.5124C66.6317 38.5164 70.358 50.1428 65.051 59.4809C59.744 68.819 47.4134 72.3321 37.51 67.3282Z" fill="#2F2F2F"/>
<path d="M31.8155 0C31.1127 0 30.5429 0.537281 30.5429 1.19996V3.59987C30.5429 4.26255 31.1127 4.79983 31.8155 4.79983C32.5183 4.79983 33.0882 4.26255 33.0882 3.59987V1.19996C33.0882 0.537281 32.5183 0 31.8155 0Z" fill="#2F2F2F"/>
</symbol>
</svg>
