<svg xmlns="http://www.w3.org/2000/svg">
    <symbol id="w-02" width="55" height="72" viewBox="0 0 55 72" fill="none">
<path d="M37.9313 0H0V72H55V17.5032L37.9313 0ZM38.617 4.0968L51.0049 16.8H38.617V4.0968ZM2.34043 69.6V2.4H36.2766V19.2H52.6596V69.6H2.34043Z" fill="#2F2F2F"/>
<path d="M32.766 44.4C33.4119 44.4 33.9362 43.8636 33.9362 43.2C33.9362 42.5364 33.4119 42 32.766 42H12.8723C12.2264 42 11.7021 42.5364 11.7021 43.2C11.7021 43.8636 12.2264 44.4 12.8723 44.4H32.766Z" fill="#2F2F2F"/>
<path d="M44.4681 36H36.2766C35.6306 36 35.1064 36.5364 35.1064 37.2C35.1064 37.8636 35.6306 38.4 36.2766 38.4H44.4681C45.114 38.4 45.6383 37.8636 45.6383 37.2C45.6383 36.5364 45.114 36 44.4681 36Z" fill="#2F2F2F"/>
<path d="M17.5532 37.2C17.5532 37.8636 18.0774 38.4 18.7234 38.4H30.4255C31.0715 38.4 31.5957 37.8636 31.5957 37.2C31.5957 36.5364 31.0715 36 30.4255 36H18.7234C18.0774 36 17.5532 36.5364 17.5532 37.2Z" fill="#2F2F2F"/>
<path d="M12.0415 36.348C11.8309 36.5748 11.7021 36.8868 11.7021 37.2C11.7021 37.512 11.8309 37.824 12.0415 38.04C12.2521 38.2668 12.5564 38.4 12.8723 38.4C13.1883 38.4 13.4809 38.268 13.7032 38.052C13.9138 37.824 14.0426 37.512 14.0426 37.2C14.0426 36.8868 13.9138 36.5748 13.7032 36.348C13.2702 35.904 12.4628 35.916 12.0415 36.348Z" fill="#2F2F2F"/>
<path d="M37.7862 42.348C37.5755 42.5748 37.4468 42.8748 37.4468 43.2C37.4468 43.524 37.5638 43.824 37.7862 44.052C38.0085 44.268 38.3128 44.4 38.617 44.4C38.9213 44.4 39.2255 44.268 39.4479 44.052C39.6702 43.824 39.7872 43.524 39.7872 43.2C39.7872 42.8868 39.6585 42.5748 39.4479 42.348C39.0032 41.904 38.2309 41.904 37.7862 42.348Z" fill="#2F2F2F"/>
<path d="M43.6372 42.348C43.4266 42.5748 43.2979 42.8748 43.2979 43.2C43.2979 43.524 43.4149 43.824 43.6372 44.052C43.8596 44.268 44.1638 44.4 44.4681 44.4C44.7723 44.4 45.0766 44.268 45.2989 44.04C45.5213 43.812 45.6383 43.512 45.6383 43.2C45.6383 42.8868 45.5096 42.5748 45.2989 42.348C44.8543 41.904 44.0819 41.904 43.6372 42.348Z" fill="#2F2F2F"/>
<path d="M19.3378 48.1992C16.775 49.5672 15.9126 52.1844 15.5978 54.8976C15.1133 54.4812 14.6288 54.066 14.1444 53.6496C12.9976 52.6644 11.3335 54.3528 12.4897 55.3476C13.5838 56.2872 14.6791 57.228 15.7733 58.1688C16.5433 58.83 17.7346 58.4124 17.7709 57.3204C17.8563 54.7212 17.9756 51.63 20.5185 50.2728C21.8561 49.5588 20.673 47.4864 19.3378 48.1992Z" fill="#2F2F2F"/>
<path d="M35.0537 52.9296C33.3476 52.8192 30.8503 55.5156 29.535 53.1132C29.2307 52.5564 28.4666 52.3476 27.9341 52.6824C26.2771 53.7252 24.1111 55.2252 22.3686 53.2824C21.347 52.1436 19.6947 53.844 20.7139 54.9792C22.9022 57.4188 25.7178 56.6772 28.2021 55.2948C28.7615 55.9368 29.4554 56.406 30.3518 56.592C31.2786 56.784 35.0619 55.2228 35.2667 55.5108C36.1467 56.7456 38.1782 55.5492 37.2877 54.3C36.6827 53.4516 36.1256 52.9992 35.0537 52.9296Z" fill="#2F2F2F"/>
<path d="M25.9389 28.7556L26.7277 28.1808L26.3251 27.2784C25.96 26.46 25.3737 25.824 24.6283 25.44L22.1474 24.1416C23.2884 23.394 24.1087 22.2684 24.599 20.7804C25.3995 20.28 25.9038 19.3908 25.9038 18.3996V17.5992C25.9038 16.7868 25.5598 16.0296 24.9747 15.5052C24.5569 13.2276 23.0508 10.764 18.4917 10.764C18.3127 10.764 18.1371 10.7712 17.9639 10.7856C17.3519 10.8372 16.4602 10.7856 15.6972 10.26C15.3427 10.0152 15.1613 9.8256 15.0723 9.7092C14.7014 9.2256 14.0788 9.0564 13.523 9.2892C12.9683 9.5232 12.643 10.092 12.7109 10.704C12.746 11.0124 12.7963 11.3724 12.8723 11.7648C12.9706 12.2688 12.9765 12.414 12.973 12.4524C12.9636 12.4944 12.8957 12.6432 12.8419 12.7632C12.76 12.9432 12.6594 13.1652 12.5412 13.4616C12.2872 14.0964 12.1023 14.7876 11.99 15.5244C11.4178 16.05 11.0796 16.8 11.0796 17.6004V18.4008C11.0796 19.392 11.5839 20.2812 12.3844 20.7816C12.8723 22.2636 13.6891 23.3868 14.8219 24.1332L12.2428 25.4376C11.5254 25.8384 10.9661 26.478 10.6255 27.2868L10.2511 28.176L11.0187 28.7388C13.2199 30.3492 15.8026 31.2 18.4917 31.2C21.1715 31.2 23.746 30.3552 25.9389 28.7556ZM13.4762 27.4884L16.3373 26.0436C16.9447 25.7352 17.3227 25.1124 17.3227 24.4176V22.7112L16.6159 22.398C15.5486 21.9276 14.8535 21.0168 14.4872 19.6128L14.3199 18.9732L13.7032 18.7764C13.5674 18.7332 13.4223 18.5976 13.4223 18.4008V17.6004C13.4223 17.43 13.5335 17.31 13.6377 17.2536L14.1865 16.9536L14.2509 16.3188C14.3234 15.6048 14.4767 14.9508 14.7084 14.3724C14.809 14.1192 14.8956 13.9308 14.9658 13.776C15.1472 13.3776 15.2572 13.0824 15.297 12.75C16.1513 13.116 17.1214 13.26 18.1523 13.1796C18.2635 13.17 18.377 13.1652 18.4929 13.1652C21.9087 13.1652 22.5523 14.766 22.7314 16.3308L22.8028 16.9584L23.3481 17.2524C23.4522 17.3088 23.5646 17.4288 23.5646 17.6004V18.4008C23.5646 18.5976 23.4183 18.7332 23.2837 18.7764L22.667 18.9732L22.4997 19.6128C22.1334 21.0168 21.4371 21.9288 20.3711 22.398L19.6643 22.7112V24.4248C19.6643 25.1088 20.0329 25.728 20.6297 26.0412L23.4557 27.5208C20.3886 29.2116 16.5328 29.2008 13.4762 27.4884Z" fill="#2F2F2F"/>
    </symbol>
</svg>
