<svg  xmlns="http://www.w3.org/2000/svg">
    <symbol id="w-03" width="63" height="73" viewBox="0 0 63 73" fill="none">
<mask id="path-1-inside-1" fill="white">
<path d="M24.3578 25.6641C23.5694 25.6641 22.9295 25.0252 22.9295 24.2383C22.9295 23.4513 23.5694 22.8125 24.3578 22.8125C25.1478 22.8125 25.786 23.4513 25.786 24.2383C25.786 25.0252 25.1478 25.6641 24.3578 25.6641Z"/>
<path d="M38.6406 25.6641C37.8522 25.6641 37.2123 25.0252 37.2123 24.2383C37.2123 23.4513 37.8522 22.8125 38.6406 22.8125C39.4306 22.8125 40.0688 23.4513 40.0688 24.2383C40.0688 25.0252 39.4306 25.6641 38.6406 25.6641Z"/>
<path d="M35.3176 35.4641C34.1186 36.0283 32.8337 36.3145 31.4997 36.3145C30.1947 36.3145 28.935 36.04 27.7549 35.4986C27.038 35.1695 26.7245 34.3229 27.0536 33.6072C27.3834 32.8921 28.2314 32.5785 28.9483 32.9077C29.7512 33.2758 30.6098 33.463 31.4997 33.463C32.4097 33.463 33.2845 33.2686 34.0996 32.8849C34.8132 32.549 35.6646 32.8542 36.0005 33.5666C36.3369 34.2789 36.0312 35.1282 35.3176 35.4641Z"/>
<path d="M0 57.8539C0 50.0137 8.94461 43.8651 16.6116 43.5738L20.5232 40.0656C15.7591 36.5958 12.8674 31.0197 12.8674 25.0938V15.6836C12.8674 7.0359 19.9379 0 28.6287 0H34.3418C43.0208 0 50.0026 7.01083 50.0026 15.6836V25.0938C50.0026 31.0096 47.1494 36.5752 42.4473 40.0388L46.3884 43.5738C54.0387 43.8645 63 49.9976 63 57.8539V71.5742C63 72.3617 62.3606 73 61.5717 73H1.42828C0.639378 73 0 72.3617 0 71.5742V57.8539ZM34.6637 63.5898H28.3441L26.8466 70.1484H36.2047L34.6637 63.5898ZM28.2214 60.7383H34.7541L35.8498 57.3303L31.4992 55.1588L27.0553 57.3777L28.2214 60.7383ZM31.4997 50.8748L36.463 42.9489C34.8512 43.3961 33.1763 43.6283 31.4852 43.6283C29.8103 43.6283 28.1477 43.4006 26.5443 42.9606L31.4997 50.8748ZM29.4555 52.9912L22.5981 42.0377L18.8996 45.3549L23.6057 55.9118L29.4555 52.9912ZM34.3418 2.85156H28.6287C21.5129 2.85156 15.7239 8.6076 15.7239 15.6836V16.8621L18.4058 13.0069C18.6485 12.6577 19.0352 12.4349 19.4598 12.3993C19.8849 12.3636 20.3022 12.519 20.6002 12.8231C23.5036 15.7872 26.8651 17.1094 31.4992 17.1094C36.1327 17.1094 39.4947 15.7872 42.4004 12.8231C42.6994 12.5174 43.1207 12.3625 43.5464 12.3998C43.9726 12.4372 44.3598 12.6633 44.6008 13.0164L47.1461 16.7396V15.6836C47.1461 8.6076 41.4023 2.85156 34.3418 2.85156ZM47.1461 25.0938V21.7983L43.1793 15.9955C40.0013 18.6939 36.246 19.9609 31.4992 19.9609C26.7473 19.9609 22.9892 18.6911 19.8107 15.9871L15.7239 21.8618V25.0938C15.7239 33.6323 22.7152 40.7773 31.4852 40.7773C40.2267 40.7773 47.1461 33.6546 47.1461 25.0938ZM40.4019 42.0383L33.5434 52.9912L39.3943 55.9118L44.1004 45.3549L40.4019 42.0383ZM60.1434 57.8539C60.1434 51.9803 52.9909 46.9088 46.7405 46.4476L41.3967 58.4336C41.2383 58.789 40.9409 59.0647 40.5738 59.1961C40.2067 59.3275 39.8022 59.303 39.4529 59.1293L38.4352 58.6208L37.2764 62.2231L39.1388 70.1484H60.1434V57.8539ZM2.85656 70.1484H23.917L25.7213 62.2448L24.4788 58.6637L23.5471 59.1293C23.1956 59.3047 22.79 59.3264 22.4262 59.1961C22.0591 59.0647 21.7617 58.789 21.6033 58.4336L16.2595 46.4476C10.0091 46.9093 2.85656 51.9803 2.85656 57.8539V70.1484Z"/>
<path d="M12.9315 63.5898H18.6446C19.4335 63.5898 20.0729 64.2281 20.0729 65.0156C20.0729 65.8031 19.4335 66.4414 18.6446 66.4414H12.9315C12.1426 66.4414 11.5032 65.8031 11.5032 65.0156C11.5032 64.2281 12.1426 63.5898 12.9315 63.5898Z"/>
<path d="M7.29706 63.5898C6.50872 63.5898 5.86878 64.2287 5.86878 65.0156C5.86878 65.8026 6.50872 66.4414 7.29706 66.4414C8.08541 66.4414 8.72534 65.8026 8.72534 65.0156C8.72534 64.2287 8.08541 63.5898 7.29706 63.5898Z"/>
</mask>
<path d="M24.3578 25.6641C23.5694 25.6641 22.9295 25.0252 22.9295 24.2383C22.9295 23.4513 23.5694 22.8125 24.3578 22.8125C25.1478 22.8125 25.786 23.4513 25.786 24.2383C25.786 25.0252 25.1478 25.6641 24.3578 25.6641Z" fill="#2F2F2F"/>
<path d="M38.6406 25.6641C37.8522 25.6641 37.2123 25.0252 37.2123 24.2383C37.2123 23.4513 37.8522 22.8125 38.6406 22.8125C39.4306 22.8125 40.0688 23.4513 40.0688 24.2383C40.0688 25.0252 39.4306 25.6641 38.6406 25.6641Z" fill="#2F2F2F"/>
<path d="M35.3176 35.4641C34.1186 36.0283 32.8337 36.3145 31.4997 36.3145C30.1947 36.3145 28.935 36.04 27.7549 35.4986C27.038 35.1695 26.7245 34.3229 27.0536 33.6072C27.3834 32.8921 28.2314 32.5785 28.9483 32.9077C29.7512 33.2758 30.6098 33.463 31.4997 33.463C32.4097 33.463 33.2845 33.2686 34.0996 32.8849C34.8132 32.549 35.6646 32.8542 36.0005 33.5666C36.3369 34.2789 36.0312 35.1282 35.3176 35.4641Z" fill="#2F2F2F"/>
<path d="M0 57.8539C0 50.0137 8.94461 43.8651 16.6116 43.5738L20.5232 40.0656C15.7591 36.5958 12.8674 31.0197 12.8674 25.0938V15.6836C12.8674 7.0359 19.9379 0 28.6287 0H34.3418C43.0208 0 50.0026 7.01083 50.0026 15.6836V25.0938C50.0026 31.0096 47.1494 36.5752 42.4473 40.0388L46.3884 43.5738C54.0387 43.8645 63 49.9976 63 57.8539V71.5742C63 72.3617 62.3606 73 61.5717 73H1.42828C0.639378 73 0 72.3617 0 71.5742V57.8539ZM34.6637 63.5898H28.3441L26.8466 70.1484H36.2047L34.6637 63.5898ZM28.2214 60.7383H34.7541L35.8498 57.3303L31.4992 55.1588L27.0553 57.3777L28.2214 60.7383ZM31.4997 50.8748L36.463 42.9489C34.8512 43.3961 33.1763 43.6283 31.4852 43.6283C29.8103 43.6283 28.1477 43.4006 26.5443 42.9606L31.4997 50.8748ZM29.4555 52.9912L22.5981 42.0377L18.8996 45.3549L23.6057 55.9118L29.4555 52.9912ZM34.3418 2.85156H28.6287C21.5129 2.85156 15.7239 8.6076 15.7239 15.6836V16.8621L18.4058 13.0069C18.6485 12.6577 19.0352 12.4349 19.4598 12.3993C19.8849 12.3636 20.3022 12.519 20.6002 12.8231C23.5036 15.7872 26.8651 17.1094 31.4992 17.1094C36.1327 17.1094 39.4947 15.7872 42.4004 12.8231C42.6994 12.5174 43.1207 12.3625 43.5464 12.3998C43.9726 12.4372 44.3598 12.6633 44.6008 13.0164L47.1461 16.7396V15.6836C47.1461 8.6076 41.4023 2.85156 34.3418 2.85156ZM47.1461 25.0938V21.7983L43.1793 15.9955C40.0013 18.6939 36.246 19.9609 31.4992 19.9609C26.7473 19.9609 22.9892 18.6911 19.8107 15.9871L15.7239 21.8618V25.0938C15.7239 33.6323 22.7152 40.7773 31.4852 40.7773C40.2267 40.7773 47.1461 33.6546 47.1461 25.0938ZM40.4019 42.0383L33.5434 52.9912L39.3943 55.9118L44.1004 45.3549L40.4019 42.0383ZM60.1434 57.8539C60.1434 51.9803 52.9909 46.9088 46.7405 46.4476L41.3967 58.4336C41.2383 58.789 40.9409 59.0647 40.5738 59.1961C40.2067 59.3275 39.8022 59.303 39.4529 59.1293L38.4352 58.6208L37.2764 62.2231L39.1388 70.1484H60.1434V57.8539ZM2.85656 70.1484H23.917L25.7213 62.2448L24.4788 58.6637L23.5471 59.1293C23.1956 59.3047 22.79 59.3264 22.4262 59.1961C22.0591 59.0647 21.7617 58.789 21.6033 58.4336L16.2595 46.4476C10.0091 46.9093 2.85656 51.9803 2.85656 57.8539V70.1484Z" fill="#2F2F2F"/>
<path d="M12.9315 63.5898H18.6446C19.4335 63.5898 20.0729 64.2281 20.0729 65.0156C20.0729 65.8031 19.4335 66.4414 18.6446 66.4414H12.9315C12.1426 66.4414 11.5032 65.8031 11.5032 65.0156C11.5032 64.2281 12.1426 63.5898 12.9315 63.5898Z" fill="#2F2F2F"/>
<path d="M7.29706 63.5898C6.50872 63.5898 5.86878 64.2287 5.86878 65.0156C5.86878 65.8026 6.50872 66.4414 7.29706 66.4414C8.08541 66.4414 8.72534 65.8026 8.72534 65.0156C8.72534 64.2287 8.08541 63.5898 7.29706 63.5898Z" fill="#2F2F2F"/>
<path d="M24.3578 25.6641C23.5694 25.6641 22.9295 25.0252 22.9295 24.2383C22.9295 23.4513 23.5694 22.8125 24.3578 22.8125C25.1478 22.8125 25.786 23.4513 25.786 24.2383C25.786 25.0252 25.1478 25.6641 24.3578 25.6641Z" stroke="white" stroke-width="0.6" mask="url(#path-1-inside-1)"/>
<path d="M38.6406 25.6641C37.8522 25.6641 37.2123 25.0252 37.2123 24.2383C37.2123 23.4513 37.8522 22.8125 38.6406 22.8125C39.4306 22.8125 40.0688 23.4513 40.0688 24.2383C40.0688 25.0252 39.4306 25.6641 38.6406 25.6641Z" stroke="white" stroke-width="0.6" mask="url(#path-1-inside-1)"/>
<path d="M35.3176 35.4641C34.1186 36.0283 32.8337 36.3145 31.4997 36.3145C30.1947 36.3145 28.935 36.04 27.7549 35.4986C27.038 35.1695 26.7245 34.3229 27.0536 33.6072C27.3834 32.8921 28.2314 32.5785 28.9483 32.9077C29.7512 33.2758 30.6098 33.463 31.4997 33.463C32.4097 33.463 33.2845 33.2686 34.0996 32.8849C34.8132 32.549 35.6646 32.8542 36.0005 33.5666C36.3369 34.2789 36.0312 35.1282 35.3176 35.4641Z" stroke="white" stroke-width="0.6" mask="url(#path-1-inside-1)"/>
<path d="M0 57.8539C0 50.0137 8.94461 43.8651 16.6116 43.5738L20.5232 40.0656C15.7591 36.5958 12.8674 31.0197 12.8674 25.0938V15.6836C12.8674 7.0359 19.9379 0 28.6287 0H34.3418C43.0208 0 50.0026 7.01083 50.0026 15.6836V25.0938C50.0026 31.0096 47.1494 36.5752 42.4473 40.0388L46.3884 43.5738C54.0387 43.8645 63 49.9976 63 57.8539V71.5742C63 72.3617 62.3606 73 61.5717 73H1.42828C0.639378 73 0 72.3617 0 71.5742V57.8539ZM34.6637 63.5898H28.3441L26.8466 70.1484H36.2047L34.6637 63.5898ZM28.2214 60.7383H34.7541L35.8498 57.3303L31.4992 55.1588L27.0553 57.3777L28.2214 60.7383ZM31.4997 50.8748L36.463 42.9489C34.8512 43.3961 33.1763 43.6283 31.4852 43.6283C29.8103 43.6283 28.1477 43.4006 26.5443 42.9606L31.4997 50.8748ZM29.4555 52.9912L22.5981 42.0377L18.8996 45.3549L23.6057 55.9118L29.4555 52.9912ZM34.3418 2.85156H28.6287C21.5129 2.85156 15.7239 8.6076 15.7239 15.6836V16.8621L18.4058 13.0069C18.6485 12.6577 19.0352 12.4349 19.4598 12.3993C19.8849 12.3636 20.3022 12.519 20.6002 12.8231C23.5036 15.7872 26.8651 17.1094 31.4992 17.1094C36.1327 17.1094 39.4947 15.7872 42.4004 12.8231C42.6994 12.5174 43.1207 12.3625 43.5464 12.3998C43.9726 12.4372 44.3598 12.6633 44.6008 13.0164L47.1461 16.7396V15.6836C47.1461 8.6076 41.4023 2.85156 34.3418 2.85156ZM47.1461 25.0938V21.7983L43.1793 15.9955C40.0013 18.6939 36.246 19.9609 31.4992 19.9609C26.7473 19.9609 22.9892 18.6911 19.8107 15.9871L15.7239 21.8618V25.0938C15.7239 33.6323 22.7152 40.7773 31.4852 40.7773C40.2267 40.7773 47.1461 33.6546 47.1461 25.0938ZM40.4019 42.0383L33.5434 52.9912L39.3943 55.9118L44.1004 45.3549L40.4019 42.0383ZM60.1434 57.8539C60.1434 51.9803 52.9909 46.9088 46.7405 46.4476L41.3967 58.4336C41.2383 58.789 40.9409 59.0647 40.5738 59.1961C40.2067 59.3275 39.8022 59.303 39.4529 59.1293L38.4352 58.6208L37.2764 62.2231L39.1388 70.1484H60.1434V57.8539ZM2.85656 70.1484H23.917L25.7213 62.2448L24.4788 58.6637L23.5471 59.1293C23.1956 59.3047 22.79 59.3264 22.4262 59.1961C22.0591 59.0647 21.7617 58.789 21.6033 58.4336L16.2595 46.4476C10.0091 46.9093 2.85656 51.9803 2.85656 57.8539V70.1484Z" stroke="white" stroke-width="0.6" mask="url(#path-1-inside-1)"/>
<path d="M12.9315 63.5898H18.6446C19.4335 63.5898 20.0729 64.2281 20.0729 65.0156C20.0729 65.8031 19.4335 66.4414 18.6446 66.4414H12.9315C12.1426 66.4414 11.5032 65.8031 11.5032 65.0156C11.5032 64.2281 12.1426 63.5898 12.9315 63.5898Z" stroke="white" stroke-width="0.6" mask="url(#path-1-inside-1)"/>
<path d="M7.29706 63.5898C6.50872 63.5898 5.86878 64.2287 5.86878 65.0156C5.86878 65.8026 6.50872 66.4414 7.29706 66.4414C8.08541 66.4414 8.72534 65.8026 8.72534 65.0156C8.72534 64.2287 8.08541 63.5898 7.29706 63.5898Z" stroke="white" stroke-width="0.6" mask="url(#path-1-inside-1)"/>
    </symbol>
</svg>
