<svg  xmlns="http://www.w3.org/2000/svg">
    <symbol id="w-04" width="70" height="58" viewBox="0 0 70 58" fill="none">
<path d="M68.8333 9.27902H46.6667V1.15902C46.6667 0.518413 46.1443 -0.000976562 45.5 -0.000976562H23.3333C22.689 -0.000976562 22.1667 0.518413 22.1667 1.15902V9.27902H1.16667C0.522375 9.27902 0 9.79841 0 10.439V56.839C0 57.4796 0.522375 57.999 1.16667 57.999H68.8333C69.4776 57.999 70 57.4796 70 56.839V10.439C70 9.79841 69.4776 9.27902 68.8333 9.27902ZM24.5 2.31902H44.3333V9.27902H42V5.79902C42 5.15841 41.4776 4.63902 40.8333 4.63902H28C27.3557 4.63902 26.8333 5.15841 26.8333 5.79902V9.27902H24.5V2.31902ZM39.6667 6.95902V9.27902H29.1667V6.95902H39.6667ZM67.6667 55.679H2.33333V30.6393L5.0085 33.2991C5.22725 33.5166 5.52387 33.639 5.83333 33.639H29.1667V41.759C29.1667 42.3996 29.689 42.919 30.3333 42.919H39.6667C40.311 42.919 40.8333 42.3996 40.8333 41.759V33.639H64.1667C64.4761 33.639 64.7728 33.5166 64.9915 33.2991L67.6667 30.6393V55.679ZM35 38.279C35.6443 38.279 36.1667 37.7596 36.1667 37.119V33.639H38.5V40.599H31.5V33.639H33.8333V37.119C33.8333 37.7596 34.3557 38.279 35 38.279ZM67.6667 27.3588L63.6837 31.319H6.31633L2.33333 27.3588V11.599H67.6667V27.3588Z" fill="#2F2F2F"/>
<path d="M64.9915 51.3789L62.6582 49.0589C62.4394 48.8414 62.1428 48.719 61.8333 48.719H8.16667C7.85721 48.719 7.56058 48.8414 7.34183 49.0589L5.0085 51.3789C4.56079 51.8397 4.57363 52.574 5.03708 53.0191C5.48917 53.4533 6.20608 53.4533 6.65817 53.0191L8.64967 51.039H61.3503L63.3418 53.0191C63.8053 53.4643 64.5438 53.4515 64.9915 52.9907C65.4283 52.5412 65.4283 51.8284 64.9915 51.3789Z" fill="#2F2F2F"/>
    </symbol>
</svg>
