<svg xmlns="http://www.w3.org/2000/svg">
    <symbol id="youtube" width="16" height="11" viewBox="0 0 16 11" fill="none">
<path d="M15.5556 1.74835C15.4074 1.09272 14.8148 0.582781 14.1481 0.364238C12.8889 0 7.92593 0 7.92593 0C7.92593 0 2.96296 0 1.7037 0.364238C1.03704 0.509934 0.518519 1.09272 0.296297 1.74835C4.1944e-07 2.98676 0 5.46358 0 5.46358C0 5.46358 0 8.01324 0.37037 9.25165C0.518519 9.90728 1.11111 10.4172 1.77778 10.6358C3.03704 11 8 11 8 11C8 11 12.963 11 14.2222 10.6358C14.8889 10.4901 15.4074 9.90728 15.6296 9.25165C16 8.01324 16 5.46358 16 5.46358C16 5.46358 15.9259 2.98676 15.5556 1.74835ZM6.44444 7.86755V3.2053L10.5185 5.53642L6.44444 7.86755Z" fill="#006198"/>
    </symbol>
</svg>
